<?xml version="1.0" encoding="UTF-8" standalone="no"?>
<!-- Created with Inkscape (http://www.inkscape.org/) -->

<svg
   width="512mm"
   height="512mm"
   viewBox="0 0 512 512"
   version="1.1"
   id="svg9953"
   inkscape:version="1.2.2 (b0a8486541, 2022-12-01)"
   sodipodi:docname="calculeat_logo_leaf.svg"
   xmlns:inkscape="http://www.inkscape.org/namespaces/inkscape"
   xmlns:sodipodi="http://sodipodi.sourceforge.net/DTD/sodipodi-0.dtd"
   xmlns:xlink="http://www.w3.org/1999/xlink"
   xmlns="http://www.w3.org/2000/svg"
   xmlns:svg="http://www.w3.org/2000/svg">
  <sodipodi:namedview
     id="namedview9955"
     pagecolor="#ffffff"
     bordercolor="#000000"
     borderopacity="0.25"
     inkscape:showpageshadow="2"
     inkscape:pageopacity="0.0"
     inkscape:pagecheckerboard="0"
     inkscape:deskcolor="#d1d1d1"
     inkscape:document-units="mm"
     showgrid="false"
     inkscape:zoom="0.2102413"
     inkscape:cx="894.2106"
     inkscape:cy="915.61457"
     inkscape:window-width="902"
     inkscape:window-height="1091"
     inkscape:window-x="20"
     inkscape:window-y="20"
     inkscape:window-maximized="0"
     inkscape:current-layer="layer1" />
  <defs
     id="defs9950">
    <linearGradient
       inkscape:collect="always"
       xlink:href="#linearGradient1361"
       id="linearGradient1363"
       x1="579.40363"
       y1="330.80609"
       x2="836.82928"
       y2="204.65111"
       gradientUnits="userSpaceOnUse"
       gradientTransform="matrix(1.1803089,0,0,1.1803089,-527.40925,-104.13075)" />
    <linearGradient
       inkscape:collect="always"
       id="linearGradient1361">
      <stop
         style="stop-color:#7bbe2a;stop-opacity:1;"
         offset="0"
         id="stop1357" />
      <stop
         style="stop-color:#edbe0c;stop-opacity:1;"
         offset="0.53029609"
         id="stop1365" />
      <stop
         style="stop-color:#fc8518;stop-opacity:1;"
         offset="1"
         id="stop1359" />
    </linearGradient>
  </defs>
  <g
     inkscape:label="Layer 1"
     inkscape:groupmode="layer"
     id="layer1">
    <path
       d="m 192.38511,392.36307 c -4.70317,-3.49971 28.87413,-63.33974 58.24524,-103.80199 22.63995,-31.18942 62.7119,-73.55509 82.05595,-86.75299 1.42213,-0.97027 2.85125,-2.12014 3.17584,-2.55527 1.11083,-1.48922 28.90788,-19.60627 36.87413,-24.03315 13.51752,-7.51176 9.87533,-7.7606 -8.26081,-0.56441 -45.30727,17.97733 -86.83951,51.22613 -126.65398,101.39336 -4.93547,6.21882 -23.19237,32.48931 -30.59523,44.02445 -6.65959,10.37694 -7.21999,9.39101 -8.00918,-14.09112 -3.66593,-109.07937 86.35358,-185.29688 221.62731,-187.64676 37.79046,-0.65648 34.4509,-3.27385 31.21792,24.46694 -15.21004,130.51099 -94.95376,211.96413 -209.35733,213.84493 l -14.6666,0.24134 -9.10811,17.55676 c -5.00947,9.65621 -9.82898,18.01351 -10.71002,18.5718 -2.60509,1.65067 -13.33358,1.20782 -15.83513,-0.65367 z m -39.25393,-23.3028 C 89.98419,364.00889 51.61858,306.27031 59.00842,227.40969 c 1.01615,-10.84387 0.43571,-10.52937 16.7656,-9.08333 70.95918,6.2836 109.94943,48.79747 105.96912,115.54582 -1.21211,20.32668 -1.07526,20.26191 -11.04457,5.2329 -21.6375,-32.61913 -43.53317,-56.5623 -66.19208,-72.38185 l -7.4234,-5.18275 10.51162,12.2646 c 22.69742,26.48261 46.69974,61.87546 60.51476,89.23278 4.01006,7.94087 4.83884,7.60767 -14.97829,6.02241 z"
       style="fill:url(#linearGradient1363);fill-opacity:1;stroke-width:1.18031"
       id="path1100" />
  </g>
</svg>
